HIERARCHY
ROOT hip
{
  OFFSET 0.0 0.0 0.0
  CHANNELS 6 Xposition Yposition Zposition Zrotation Yrotation Xrotation
  JOINT torso
  {
    OFFSET 0.0 0.0 0.0
    CHANNELS 3 Zrotation Xrotation Yrotation
    JOINT neck
    {
      OFFSET -20.11218299999996 327.95800799999995 66.30578600000035
      CHANNELS 3 Zrotation Xrotation Yrotation
      JOINT head
      {
        OFFSET 18.28939800000012 288.83178699999996 217.81652800000006
        CHANNELS 3 Zrotation Xrotation Yrotation
        End Site
        {
          OFFSET 0.0 0.0 0.0
        }
      }
    }
    JOINT left_collar
    {
      OFFSET -20.11218299999996 327.95800799999995 66.30578600000035
      CHANNELS 3 Zrotation Xrotation Yrotation
      JOINT left_upper_arm
      {
        OFFSET -127.08163400000001 -16.17407199999991 15.44799799999987
        CHANNELS 3 Zrotation Xrotation Yrotation
        JOINT left_forearm
        {
          OFFSET -234.267792 45.78796399999999 109.31286600000021
          CHANNELS 3 Zrotation Xrotation Yrotation
          JOINT left_hand
          {
            OFFSET -259.114014 -33.25433399999997 16.18847699999992
            CHANNELS 3 Zrotation Xrotation Yrotation
            End Site
            {
              OFFSET 0.0 0.0 0.0
            }
          }
        }
      }
    }
    JOINT right_collar
    {
      OFFSET -20.11218299999996 327.95800799999995 66.30578600000035
      CHANNELS 3 Zrotation Xrotation Yrotation
      JOINT right_upper_arm
      {
        OFFSET 164.513184 1.5733030000000099 4.892333999999892
        CHANNELS 3 Zrotation Xrotation Yrotation
        JOINT right_forearm
        {
          OFFSET 260.742027 48.718444999999974 144.35229500000014
          CHANNELS 3 Zrotation Xrotation Yrotation
          JOINT right_hand
          {
            OFFSET 287.85150899999996 -44.57171600000015 13.96813899999961
            CHANNELS 3 Zrotation Xrotation Yrotation
            End Site
            {
              OFFSET 0.0 0.0 0.0
            }
          }
        }
      }
    }
  }
}
MOTION
Frames: 6
Frame Time: 0.01
-277.74686219851486 260.49483381787553 1399.65238587093 -1.0314293152071077 -1.6674459878665282 -4.441857495145354 0.16511279974672777 1.081108308493424 0.03454605482110526 -0.8138353283240053 -16.086785861821 1.5857564722310487 0.0 0.0 0.0 0.7500127946508733 -0.3151743250371742 3.041488010836102 71.08695943058066 14.938057780494876 35.18566510219303 9.12903800699097 1.5695508159800877 -4.695318781590256 0.0 0.0 0.0 0.9344687507588222 -0.23092914460766661 11.387622868228302 -59.203871936896626 20.19615679710001 -27.523334675496294 -21.109000372286324 -1.1113916465466782 -6.203095905461522 0.0 100.0 0.0
-278.27032735510534 260.10886701943116 1400.144077191184 -1.0968831150209668 -1.8980903961908204 -4.250276856080755 0.16888993899246754 1.1328470709342737 0.037076007941452195 -0.7482641441788908 -16.028533735960554 1.5294209020394884 0.0 0.0 0.0 0.7633614224738208 -0.30745209385738725 2.993044145638392 71.13340898862558 14.953433142609557 35.16776179248002 9.162453592885514 1.5846210839909871 -4.749402483217541 0.0 0.0 0.0 0.9326760933934936 -0.23013968424570624 11.356685782172205 -59.111721849931826 20.195173373655713 -27.459687786706805 -21.18148294642804 -1.0929709552101954 -6.149131905705069 0.0 100.0 0.0
-278.8241151338637 259.7172631705261 1400.6463320845014 -1.1648123351110766 -2.1314531582009573 -4.053294846745112 0.17107379636877815 1.1849019605666657 0.03993609835441354 -0.6820589804295951 -15.969474328801473 1.472553063327423 0.0 0.0 0.0 0.7772729662233447 -0.29988076600899083 2.946223276504398 71.18426158646196 14.969168416584285 35.15045484730612 9.197228141203663 1.6002410780971472 -4.80521495285387 0.0 0.0 0.0 0.9318808951605971 -0.22949004788094 11.326294359566498 -59.016719985163924 20.193848037315046 -27.394605556320258 -21.25011217834706 -1.0746809642378634 -6.095827738756379 0.0 100.0 0.0
-279.42247929744167 259.3198087767012 1401.160531226896 -1.2359362090925088 -2.367171030070582 -3.8478607460091028 0.1718299414779024 1.236230902916985 0.043026799733545236 -0.6153164811808268 -15.909258873955087 1.4152129753082063 0.0 0.0 0.0 0.7915107905388155 -0.29251766170599025 2.901285259424748 71.24045443747166 14.985410901214381 35.13372286877675 9.233922204906198 1.6166082305968281 -4.86337791998927 0.0 0.0 0.0 0.931598612269134 -0.22891329057651943 11.296248891948755 -58.91853043643512 20.192301937946993 -27.32751791130662 -21.312017190100335 -1.0566633666135015 -6.043613531991141 0.0 100.0 0.0
-280.0800749392918 258.91630504651744 1401.687965648576 -1.3109919689291394 -2.6047585625793115 -3.63073049614317 0.17136502809523627 1.2856752538384217 0.046233606704318704 -0.5481412088984114 -15.847557376938225 1.3574682575720527 0.0 0.0 0.0 0.8058316220096619 -0.285411070873373 2.8584134761318376 71.30274006095782 15.002268968394228 35.1175714556423 9.273237141353597 1.633957044636526 -4.924603572747076 0.0 0.0 0.0 0.9313114033958384 -0.22833740951898476 11.26627705098365 -58.81690915950946 20.190656345936837 -27.257913861339418 -21.364225339752828 -1.039085267433983 -5.992974301406281 0.0 100.0 0.0
-280.8114994014868 258.50662204236664 1402.2297083126557 -1.3907049986459672 -2.843576920913114 -3.3985690582918417 0.169924028528496 1.3319770722896052 0.049428838420507354 -0.4806522775423652 -15.784079782309185 1.2994006208209992 0.0 0.0 0.0 0.819990601569501 -0.27859872761578575 2.81770766931894 71.37162935227252 15.019799951876648 35.10204056029335 9.316009193572436 1.6525551223083068 -4.989674826704055 0.0 0.0 0.0 0.9304805988411096 -0.22768704003203885 11.236037317798404 -58.71173220117604 20.189028648937175 -27.185373083414433 -21.40374038023265 -1.0221406441167502 -5.944453932832108 0.0 100.0 0.0
